# xmcd CD database file
#
# Track frame offsets:
#	150
#	22501
#	35593
#	54398
#	72680
#	83978
#	101586
#	129831
#	146737
#	163286
#	178445
#	195253
#	214998
#	231925
#
# Disc length: 3398 seconds
#
# Revision: 0
# Processed by: cddbd v1.5.1PL0 Copyright (c) Steve Scherf et al.
# Submitted via: CDex 1.51
#
DISCID=c90d440e
DTITLE=BBand - Cover Numer One
DYEAR=1900
DGENRE=Jazz
TTITLE0=In the Stone- September Earth Wind and Fire
TTITLE1=It don't mean a thing
TTITLE2=All night long
TTITLE3=boogie down
TTITLE4=it only a paper moon
TTITLE5=i wish
TTITLE6=mc artur park
TTITLE7=mission impossible
TTITLE8=lady marmelade
TTITLE9=misty
TTITLE10=peter gunn
TTITLE11=don't let me be misunderstood
TTITLE12=unforgettable
TTITLE13=spain
EXTD=
EXTT0=
EXTT1=
EXTT2=
EXTT3=
EXTT4=
EXTT5=
EXTT6=
EXTT7=
EXTT8=
EXTT9=
EXTT10=
EXTT11=
EXTT12=
EXTT13=
PLAYORDER=
